<?xml version="1.0" encoding="iso-8859-1"?>
<!-- Uploaded to: SVG Repo, www.svgrepo.com, Generator: SVG Repo Mixer Tools -->
<svg height="800px" width="800px" version="1.1" id="Layer_1" xmlns="http://www.w3.org/2000/svg" xmlns:xlink="http://www.w3.org/1999/xlink" 
	 viewBox="0 0 512 512" xml:space="preserve">
<g transform="translate(1 1)">
	<path style="fill:#63D3FD;" d="M289.133,92.867c0,12.8,10.24,23.04,23.04,23.04c2.56,0,6.827-0.853,6.827-0.853
		c-9.387,9.387-12.8,23.04-0.853,34.133c11.093,11.093,24.747,7.68,34.133-0.853c0,0-0.853,4.267-0.853,6.827
		c0,12.8,10.24,23.04,23.04,23.04c12.8,0,23.04-10.24,23.04-23.04c0-2.56-0.853-6.827-0.853-6.827
		c9.387,9.387,23.893,12.8,34.987,0.853c11.947-11.947,7.68-24.747-1.707-34.133c0,0,4.267,0.853,6.827,0.853
		c12.8,0,23.04-10.24,23.04-23.04s-10.24-23.04-23.04-23.04c-2.56,0-6.827,0.853-6.827,0.853c9.387-9.387,13.653-23.04,1.707-34.987
		c-11.947-11.947-25.6-7.68-34.987,1.707c0,0,0.853-4.267,0.853-6.827c0-12.8-10.24-23.04-23.04-23.04
		c-12.8,0-23.04,10.24-23.04,23.04c0,2.56,0.853,6.827,0.853,6.827c-9.387-9.387-22.187-13.653-34.133-1.707
		C306.2,47.64,310.467,61.293,319,70.68c0,0-4.267-0.853-6.827-0.853C299.373,69.827,289.133,80.067,289.133,92.867"/>
	<g>
		<path style="fill:#00DA6C;" d="M168.813,108.227c-1.707,0-5.973,0.853-5.12,0.853c7.68-7.68,10.24-18.773,0.853-28.16
			c-10.24-8.533-20.48-5.12-28.16,1.707c0,0,0.853-3.413,0.853-5.12c0-10.24-8.533-18.773-18.773-18.773
			s-18.773,8.533-18.773,18.773c0,1.707,0.853,5.973,0.853,5.12c-6.827-6.827-17.92-10.24-27.307-0.853s-5.973,20.48,0.853,27.307
			c0,0-3.413-0.853-5.12-0.853c-10.24,0-18.773,8.533-18.773,18.773s8.533,18.773,18.773,18.773c1.707,0,5.973-0.853,5.12-0.853
			c-6.827,7.68-10.24,17.92-0.853,27.307c9.387,9.387,20.48,5.973,28.16-0.853c0,0-0.853,3.413-0.853,5.12
			c0,10.24,8.533,17.92,18.773,17.92s18.773-7.68,18.773-17.92c0-1.707-0.853-5.973-0.853-5.12c7.68,7.68,18.773,10.24,27.307,0.853
			c9.387-9.387,5.973-20.48-0.853-27.307c0,0,3.413,0.853,5.12,0.853c10.24,0,17.92-8.533,17.92-18.773
			S179.053,108.227,168.813,108.227"/>
		<path style="fill:#00DA6C;" d="M280.6,178.2c8.533,40.96,40.107,46.933,59.733,42.667C335.213,196.12,321.56,169.667,280.6,178.2"
			/>
		<path style="fill:#00DA6C;" d="M246.467,135.533c9.387,40.96-23.04,55.467-42.667,59.733
			C198.68,170.52,205.507,144.92,246.467,135.533"/>
	</g>
	<g>
		<path style="fill:#FFE100;" d="M348.867,92.867c0-14.507,11.093-25.6,25.6-25.6c14.507,0,25.6,11.093,25.6,25.6
			s-11.093,25.6-25.6,25.6C359.96,118.467,348.867,107.373,348.867,92.867"/>
		<path style="fill:#FFE100;" d="M139.8,127c0-11.947-9.387-21.333-21.333-21.333S97.133,115.053,97.133,127
			s9.387,21.333,21.333,21.333C130.413,148.333,139.8,138.947,139.8,127"/>
		<polygon style="fill:#FFE100;" points="370.2,468.333 400.067,289.133 109.933,289.133 139.8,468.333 		"/>
	</g>
	<polygon style="fill:#FFFFFF;" points="109.933,289.133 139.8,468.333 160.28,468.333 135.533,289.133 	"/>
	<polygon style="fill:#FFA800;" points="374.467,289.133 349.72,468.333 370.2,468.333 400.067,289.133 	"/>
	<polygon style="fill:#FFE100;" points="391.533,502.467 118.467,502.467 109.933,468.333 400.067,468.333 	"/>
	<polygon style="fill:#FFFFFF;" points="109.933,468.333 118.467,502.467 142.36,502.467 135.533,468.333 	"/>
	<polygon style="fill:#FFA800;" points="374.467,468.333 367.64,502.467 391.533,502.467 400.067,468.333 	"/>
	<polygon style="fill:#FFE100;" points="101.4,289.133 408.6,289.133 408.6,246.467 101.4,246.467 	"/>
	<polygon style="fill:#FFFFFF;" points="75.8,289.133 101.4,289.133 101.4,246.467 75.8,246.467 	"/>
	<polygon style="fill:#FFA800;" points="408.6,289.133 434.2,289.133 434.2,246.467 408.6,246.467 	"/>
	<path d="M434.2,297.667H75.8c-5.12,0-8.533-3.413-8.533-8.533v-42.667c0-5.12,3.413-8.533,8.533-8.533h358.4
		c5.12,0,8.533,3.413,8.533,8.533v42.667C442.733,294.253,439.32,297.667,434.2,297.667z M84.333,280.6h341.333V255H84.333V280.6z"
		/>
	<path d="M391.533,511H118.467c-4.267,0-7.68-2.56-8.533-6.827L101.4,470.04c-0.853-2.56,0-5.12,1.707-7.68
		c1.707-1.707,4.267-2.56,6.827-2.56h290.133c2.56,0,5.12,0.853,6.827,3.413c1.707,1.707,2.56,5.12,1.707,7.68l-8.533,34.133
		C399.213,508.44,395.8,511,391.533,511z M125.293,493.933h259.413l4.267-17.067H121.027L125.293,493.933z"/>
	<path d="M370.2,476.867H139.8c-4.267,0-7.68-3.413-8.533-6.827L101.4,290.84c0-2.56,0-5.12,1.707-6.827s4.267-3.413,6.827-3.413
		h290.133c2.56,0,5.12,0.853,6.827,3.413c1.707,1.707,2.56,4.267,1.707,6.827l-29.867,179.2
		C377.88,473.453,374.467,476.867,370.2,476.867z M146.627,459.8H362.52l27.307-162.133H120.173L146.627,459.8z"/>
	<path d="M178.2,348.867h-59.733c-5.12,0-8.533-3.413-8.533-8.533c0-5.12,3.413-8.533,8.533-8.533H178.2
		c5.12,0,8.533,3.413,8.533,8.533C186.733,345.453,183.32,348.867,178.2,348.867z"/>
	<path d="M220.867,348.867h-8.533c-5.12,0-8.533-3.413-8.533-8.533c0-5.12,3.413-8.533,8.533-8.533h8.533
		c5.12,0,8.533,3.413,8.533,8.533C229.4,345.453,225.987,348.867,220.867,348.867z"/>
	<path d="M263.533,417.133H255c-5.12,0-8.533-3.413-8.533-8.533c0-5.12,3.413-8.533,8.533-8.533h8.533
		c5.12,0,8.533,3.413,8.533,8.533C272.067,413.72,268.653,417.133,263.533,417.133z"/>
	<path d="M380.44,417.133h-82.773c-5.12,0-8.533-3.413-8.533-8.533c0-5.12,3.413-8.533,8.533-8.533h82.773
		c5.12,0,8.533,3.413,8.533,8.533C388.973,413.72,384.707,417.133,380.44,417.133z"/>
	<path d="M359.107,238.787c-1.707,0-2.56,0-4.267-0.853c-10.24-5.973-17.92-8.533-17.92-8.533c-4.267-1.707-6.827-6.827-5.12-11.093
		s6.827-6.827,11.093-5.12c0,0,8.533,3.413,20.48,10.24c4.267,2.56,5.12,7.68,3.413,11.947
		C365.08,237.08,362.52,238.787,359.107,238.787z"/>
	<path d="M357.4,255L357.4,255c-5.12-0.853-8.533-5.12-8.533-9.387c4.267-36.693,5.973-53.76,17.92-71.68
		c2.56-4.267,7.68-5.12,11.947-2.56c4.267,2.56,5.12,7.68,2.56,11.947c-9.387,15.36-11.947,29.867-15.36,64.853
		C365.08,251.587,361.667,255,357.4,255z"/>
	<path d="M374.467,127c-18.773,0-34.133-15.36-34.133-34.133s15.36-34.133,34.133-34.133c18.773,0,34.133,15.36,34.133,34.133
		S393.24,127,374.467,127z M374.467,75.8c-9.387,0-17.067,7.68-17.067,17.067s7.68,17.067,17.067,17.067s17.067-7.68,17.067-17.067
		S383.853,75.8,374.467,75.8z"/>
	<path d="M374.467,186.733c-15.36,0-27.307-9.387-30.72-23.04c-2.56,0.853-5.12,1.707-6.827,1.707
		c-9.387,0.853-17.92-2.56-24.747-9.387c-9.387-9.387-11.947-20.48-7.68-31.573c-14.507-4.267-23.893-16.213-23.893-31.573
		c0-14.507,9.387-27.307,23.04-30.72c-4.267-11.093-0.853-23.04,7.68-32.427c9.387-9.387,18.773-10.24,25.6-9.387
		c2.56,0,4.267,0.853,6.827,1.707C347.16,9.24,359.96-1,374.467-1c14.507,0,27.307,10.24,30.72,23.04
		c2.56-0.853,5.12-1.707,6.827-1.707c6.827-0.853,16.213,0,25.6,9.387c10.24,10.24,11.093,22.187,7.68,32.427
		c12.8,4.267,23.04,16.213,23.04,30.72s-10.24,27.307-23.04,30.72c4.267,11.093,1.707,23.04-7.68,31.573
		c-6.827,6.827-16.213,10.24-24.747,9.387c-2.56,0-5.12-0.853-7.68-1.707C401.773,177.347,388.973,186.733,374.467,186.733z
		 M351.427,139.8c1.707,0,2.56,0,4.267,0.853c1.707,0.853,5.12,4.267,4.267,10.24c0,0.853-0.853,2.56-0.853,4.267
		c0,7.68,6.827,14.507,14.507,14.507c7.68,0,14.507-5.973,14.507-14.507c0-1.707-0.853-3.413-0.853-4.267
		c-0.853-5.973,2.56-9.387,4.267-10.24c3.413-1.707,7.68-0.853,10.24,1.707c3.413,3.413,7.68,5.12,11.093,5.973
		c4.267,0,7.68-0.853,11.093-4.267c8.533-8.533,3.413-17.067-1.707-22.187c-2.56-2.56-3.413-6.827-1.707-10.24
		c0.853-1.707,4.267-5.12,10.24-4.267c0.853,0,2.56,0.853,4.267,0.853c8.533,0,14.507-6.827,14.507-14.507
		c0-8.533-6.827-14.507-14.507-14.507c-0.853,0-3.413,0.853-4.267,0.853c-5.973,0.853-9.387-1.707-10.24-4.267
		c-1.707-3.413-0.853-7.68,1.707-10.24c5.12-4.267,12.8-14.507,3.413-23.893c-3.413-3.413-6.827-5.12-11.093-4.267
		c-3.413,0.853-7.68,2.56-11.093,5.973c-2.56,2.56-6.827,3.413-10.24,1.707c-1.707-0.853-5.12-4.267-4.267-10.24
		c0-0.853,0.853-2.56,0.853-4.267c0-8.533-6.827-14.507-14.507-14.507s-14.507,6.827-14.507,14.507
		c0,0.853,3.413,11.947-3.413,14.507c-3.413,1.707-7.68,0.853-10.24-1.707c-3.413-3.413-7.68-5.973-11.093-5.973
		c-5.12,0-8.533,0.853-12.8,4.267c-9.387,9.387-2.56,18.773,0.853,23.04c2.56,2.56,3.413,6.827,1.707,10.24
		c-0.853,1.707-4.267,5.12-10.24,4.267c-0.853,0-2.56-0.853-4.267-0.853c-7.68,0-13.653,6.827-13.653,14.507
		c0,8.533,5.973,14.507,14.507,14.507c1.707,0,3.413-0.853,4.267-0.853c5.973-0.853,9.387,2.56,10.24,4.267
		c1.707,3.413,0.853,7.68-1.707,10.24c-2.56,2.56-11.093,12.8-0.853,22.187c3.413,3.413,6.827,5.12,11.093,4.267
		c3.413,0,7.68-2.56,11.093-5.973C347.16,140.653,349.72,139.8,351.427,139.8z"/>
	<path d="M330.093,230.253c-9.387,0-19.627-2.56-27.307-6.827c-11.093-5.973-24.747-17.92-29.867-44.373
		c-0.853-4.267,1.707-9.387,6.827-10.24c26.453-5.12,59.733-0.853,69.973,49.493c0.853,2.56,0,4.267-0.853,6.827
		c-0.853,2.56-3.413,3.413-5.12,3.413C337.773,230.253,333.507,230.253,330.093,230.253z M291.693,185.027
		c3.413,11.093,10.24,18.773,18.773,23.893c6.827,3.413,13.653,4.267,19.627,4.267l0,0
		C323.267,192.707,311.32,184.173,291.693,185.027z"/>
	<path d="M184.173,237.08h-0.853c-4.267-0.853-7.68-5.12-7.68-9.387c2.56-18.773,20.48-35.84,22.187-38.4
		c3.413-3.413,8.533-3.413,11.947,0s3.413,8.533,0,11.947c-4.267,4.267-16.213,17.067-17.067,28.16
		C191.853,233.667,188.44,237.08,184.173,237.08z"/>
	<path d="M186.733,255c-4.267,0-7.68-3.413-8.533-7.68c-5.973-40.107-11.947-55.467-21.333-70.827
		c-2.56-4.267-1.707-9.387,2.56-11.947c4.267-2.56,9.387-1.707,11.947,2.56c12.8,18.773,18.773,39.253,23.893,77.653
		c0.853,4.267-2.56,9.387-7.68,9.387C187.587,255,186.733,255,186.733,255z"/>
	<path d="M118.467,156.867c-16.213,0-29.867-13.653-29.867-29.867s13.653-29.867,29.867-29.867s29.867,13.653,29.867,29.867
		S134.68,156.867,118.467,156.867z M118.467,114.2c-6.827,0-12.8,5.973-12.8,12.8s5.973,12.8,12.8,12.8s12.8-5.973,12.8-12.8
		S125.293,114.2,118.467,114.2z"/>
	<path d="M118.467,203.8c-11.947,0-22.187-7.68-25.6-17.92c-1.707,0-3.413,0.853-4.267,0.853c-8.533,0.853-15.36-2.56-21.333-8.533
		c-7.68-7.68-9.387-17.067-6.827-25.6c-11.093-3.413-18.773-13.653-18.773-25.6s7.68-22.187,17.92-25.6
		c0-0.853-0.853-2.56-0.853-4.267c-0.853-5.12,0-13.653,8.533-21.333c7.68-8.533,16.213-9.387,21.333-8.533
		c1.707,0,2.56,0.853,4.267,0.853c4.267-10.24,13.653-17.92,25.6-17.92c11.947,0,22.187,7.68,25.6,17.92
		c1.707,0,2.56-0.853,4.267-0.853c5.973-0.853,13.653,0,21.333,8.533c7.68,7.68,8.533,16.213,8.533,21.333
		c0,1.707-0.853,3.413-0.853,4.267c10.24,3.413,17.92,13.653,17.92,25.6s-7.68,22.187-17.92,25.6c2.56,8.533,0,17.92-7.68,25.6
		c-5.973,5.973-13.653,8.533-21.333,7.68c-1.707,0-2.56,0-4.267-0.853C140.653,196.12,130.413,203.8,118.467,203.8z M100.547,162.84
		c1.707,0,2.56,0,4.267,0.853c3.413,1.707,5.12,5.973,4.267,10.24c0,0.853-0.853,2.56-0.853,3.413c0,5.12,5.12,9.387,10.24,9.387
		c5.973,0,10.24-4.267,10.24-9.387c0-0.853,0-2.56-0.853-3.413c-0.853-3.413,0.853-8.533,4.267-10.24
		c3.413-1.707,7.68-0.853,10.24,1.707c2.56,2.56,5.12,4.267,7.68,4.267c2.56,0,5.12-0.853,7.68-3.413
		c5.973-5.973,1.707-11.947-0.853-15.36c-2.56-2.56-3.413-6.827-1.707-10.24c1.707-3.413,5.973-5.12,10.24-4.267
		c0.853,0,1.707,0.853,3.413,0.853c5.12,0,9.387-4.267,9.387-10.24s-4.267-10.24-9.387-10.24c-0.853,0-10.24,2.56-13.653-3.413
		c-1.707-3.413-0.853-7.68,1.707-10.24c2.56-2.56,4.267-5.12,4.267-7.68s-0.853-5.12-3.413-7.68
		c-1.707-1.707-6.827-6.827-15.36,1.707c-2.56,1.707-6.827,2.56-9.387,0.853c-3.413-1.707-5.12-5.973-4.267-9.387
		c0-0.853,0.853-2.56,0.853-3.413c-0.853-5.973-5.12-10.24-11.093-10.24c-5.12,0-10.24,4.267-10.24,10.24
		c0,0.853,2.56,11.093-3.413,12.8c-3.413,0.853-7.68,0.853-10.24-1.707c-3.413-2.56-9.387-7.68-15.36-0.853
		C75.8,91.16,75.8,93.72,75.8,95.427c0,2.56,1.707,5.973,4.267,8.533c2.56,2.56,3.413,6.827,1.707,10.24
		c-0.853,1.707-4.267,5.12-10.24,4.267c-0.853,0-1.707-0.853-3.413-0.853C63,116.76,58.733,121.88,58.733,127
		c0,5.973,4.267,10.24,10.24,10.24c0.853,0,2.56,0,3.413-0.853c3.413-0.853,8.533,0.853,10.24,4.267
		c1.707,3.413,0.853,7.68-1.707,10.24c-5.12,5.12-5.973,11.093-1.707,15.36c2.56,2.56,4.267,3.413,7.68,3.413
		c2.56,0,5.973-1.707,7.68-4.267C96.28,163.693,98.84,162.84,100.547,162.84z"/>
	<path d="M203.8,203.8c-4.267,0-7.68-2.56-8.533-6.827c-3.413-16.213-1.707-30.72,5.12-41.813c7.68-13.653,23.04-23.04,44.373-28.16
		c4.267-0.853,9.387,1.707,10.24,6.827c5.973,26.453-3.413,42.667-12.8,51.2c-11.947,11.947-28.16,16.213-35.84,18.773
		C204.653,203.8,204.653,203.8,203.8,203.8z M239.64,146.627c-11.947,4.267-19.627,9.387-23.893,17.067
		c-3.413,5.973-5.12,12.8-4.267,20.48c5.973-2.56,13.653-5.973,18.773-11.093C237.08,166.253,240.493,156.867,239.64,146.627z"/>
</g>
</svg>