<!DOCTYPE svg PUBLIC "-//W3C//DTD SVG 1.1//EN" "http://www.w3.org/Graphics/SVG/1.1/DTD/svg11.dtd">
<!-- Uploaded to: SVG Repo, www.svgrepo.com, Transformed by: SVG Repo Mixer Tools -->
<svg height="800px" width="800px" version="1.1" id="Layer_1" xmlns="http://www.w3.org/2000/svg" xmlns:xlink="http://www.w3.org/1999/xlink" viewBox="-51.2 -51.2 614.40 614.40" xml:space="preserve" fill="#000000" transform="rotate(0)">
<g id="SVGRepo_bgCarrier" stroke-width="0"/>
<g id="SVGRepo_tracerCarrier" stroke-linecap="round" stroke-linejoin="round"/>
<g id="SVGRepo_iconCarrier"> <g transform="translate(1 1)"> <g> <path style="fill:#00DA6C;" d="M324.424,137.847c1.736,42.522,32.108,44.258,52.068,43.39 C375.624,155.203,366.946,136.112,324.424,137.847"/> <path style="fill:#00DA6C;" d="M81.441,155.203c9.546,33.844,35.58,39.051,52.068,34.712 C127.434,169.088,115.285,145.658,81.441,155.203"/> <path style="fill:#00DA6C;" d="M471.949,137.847c-9.546,33.844-35.58,39.051-52.068,34.712 C425.956,151.732,438.105,128.302,471.949,137.847"/> </g> <path style="fill:#12baf8;" d="M98.797,85.78c0,9.546,6.942,16.488,16.488,16.488c1.736,0,5.207-0.868,5.207-0.868 c-6.075,6.075-8.678,16.488-0.868,24.298c7.81,7.81,18.224,5.207,24.298-0.868c0,0-0.868,3.471-0.868,5.207 c0,9.546,7.81,16.488,16.488,16.488c8.678,0,16.488-6.942,16.488-16.488c0-1.736-0.868-5.207-0.868-5.207 c6.075,6.075,16.488,8.678,25.166,0.868c8.678-8.678,5.207-18.224-0.868-24.298c0,0,3.471,0.868,5.207,0.868 c9.546,0,16.488-7.81,16.488-16.488s-7.81-16.488-16.488-16.488c-1.736,0-5.207,0.868-5.207,0.868 c6.075-6.075,9.546-16.488,0.868-25.166c-8.678-8.678-18.224-5.207-25.166,0.868c0,0,0.868-3.471,0.868-5.207 c0-7.81-7.81-15.62-16.488-15.62s-16.488,7.81-16.488,16.488c0,1.736,0.868,5.207,0.868,5.207 c-6.075-6.075-15.62-9.546-24.298-0.868s-5.207,18.224,0.868,25.166c0,0-3.471-0.868-5.207-0.868 C105.739,69.292,98.797,77.102,98.797,85.78"/> <path style="fill:#E4667F;" d="M438.105,51.936c-1.736,0-5.207,0.868-5.207,0.868c6.075-6.075,9.546-16.488,0.868-25.166 c-8.678-8.678-18.224-5.207-24.298,0.868c0,0,0.868-3.471,0.868-5.207c0.868-7.81-6.942-15.62-16.488-15.62 c-9.546,0-16.488,7.81-16.488,16.488c0,1.736,0.868,5.207,0.868,5.207c-6.075-6.075-16.488-9.546-25.166-0.868 c-8.678,8.678-5.207,18.224,0.868,25.166c0,0-3.471-0.868-5.207-0.868c-7.81-0.868-15.62,6.942-15.62,15.62 s7.81,16.488,16.488,16.488c1.736,0,5.207-0.868,5.207-0.868c-6.075,6.075-9.546,15.62-0.868,24.298 c7.81,7.81,18.224,5.207,25.166-0.868c0,0-0.868,3.471-0.868,5.207c0,9.546,7.81,16.488,16.488,16.488 c9.546,0,16.488-6.942,16.488-16.488c0-1.736-0.868-5.207-0.868-5.207c6.075,6.075,16.488,8.678,24.298,0.868 c7.81-7.81,5.207-18.224-0.868-24.298c0,0,3.471,0.868,5.207,0.868c8.678,0,15.62-6.942,15.62-16.488 S447.651,51.936,438.105,51.936"/> <g> <path style="fill:#7e7258;" d="M201.197,261.942c-4.339-6.075-13.885-11.281-24.298-11.281c0-14.753-11.281-26.034-26.034-26.034 c-7.81,0-13.885,3.471-19.092,8.678c-3.471-9.546-13.017-17.356-24.298-17.356c-14.753,0-26.034,11.281-26.034,26.034 c-14.753,0-26.902,12.149-26.034,27.77c0.868,13.885,13.017,24.298,27.769,24.298H298.39c0-14.753-11.281-26.034-26.034-26.034 c0-14.753-11.281-26.034-26.034-26.034c-12.149,0-21.695,7.81-25.166,18.224c-0.868,5.207-5.207,7.81-10.414,7.81 C206.403,268.017,202.932,265.414,201.197,261.942"/> <path style="fill:#7e7258;" d="M428.559,241.983c0-14.753-11.281-26.034-26.034-26.034c-12.149,0-21.695,7.81-25.166,18.224 c-0.868,5.207-5.207,7.81-10.414,7.81c-4.339,0-7.81-2.603-9.546-6.075c-4.339-6.075-13.885-11.281-24.298-11.281 c0-14.753-11.281-26.034-26.034-26.034c-7.81,0-13.885,3.471-19.092,8.678c-3.471-9.546-13.017-17.356-24.298-17.356 c-14.753,0-26.034,11.281-26.034,26.034c-14.753,0-26.902,12.149-26.034,27.77c0,6.942,4.339,13.885,9.546,18.224 c0,0,0-0.868,0.868-0.868c3.471-10.414,13.017-18.224,25.166-18.224c14.753,0,26.034,11.281,26.034,26.034 c14.753,0,26.034,11.281,26.034,26.034h130.169c14.753,0,26.034-11.281,26.034-26.034 C455.461,254.132,443.312,241.983,428.559,241.983"/> </g> <polygon style="fill:#e4a5c6;" points="55.407,502.322 428.559,502.322 428.559,328.763 55.407,328.763 "/> <polygon style="fill:#12baf8;" points="454.593,406.864 350.458,467.61 255,415.542 159.542,467.61 55.407,406.864 55.407,354.797 159.542,415.542 255,363.475 350.458,415.542 454.593,354.797 "/> <g> <polygon style="fill:#7e7258;" points="428.559,502.322 454.593,502.322 454.593,406.864 428.559,432.898 "/> <polygon style="fill:#7e7258;" points="428.559,328.763 428.559,380.831 454.593,354.797 454.593,328.763 "/> </g> <polygon style="fill:#3DB9F9;" points="428.559,432.898 454.593,406.864 454.593,354.797 428.559,380.831 "/> <polygon style="fill:#e4a5c6;" points="46.729,328.763 437.237,328.763 437.237,294.051 46.729,294.051 "/> <polygon style="fill:#7e7258;" points="437.237,328.763 463.271,328.763 463.271,294.051 437.237,294.051 "/> <g> <polygon style="fill:#FFFFFF;" points="46.729,328.763 72.763,328.763 72.763,294.051 46.729,294.051 "/> <polygon style="fill:#FFFFFF;" points="55.407,502.322 81.441,502.322 81.441,328.763 55.407,328.763 "/> </g> <path d="M350.458,476.288c-1.736,0-2.603,0-4.339-0.868L255,425.088l-91.119,49.464c-2.603,1.736-6.075,1.736-8.678,0 L51.068,413.807c-2.603-0.868-4.339-3.471-4.339-6.942v-52.068c0-3.471,1.736-6.075,4.339-7.81c2.603-1.736,6.075-1.736,8.678,0 l99.797,59.01l91.119-49.464c2.603-1.736,6.075-1.736,8.678,0l91.119,49.464l99.797-58.142c2.603-1.736,6.075-1.736,8.678,0 c2.603,1.736,4.339,3.471,4.339,6.942v52.068c0,3.471-1.736,6.075-4.339,7.81L354.797,475.42 C353.061,476.288,352.193,476.288,350.458,476.288z M255,406.864c1.736,0,2.603,0,4.339,0.868l91.119,50.332l95.458-55.539v-32.108 l-91.119,52.936c-2.603,1.736-6.075,1.736-8.678,0L255,373.02l-91.119,49.464c-2.603,1.736-6.075,1.736-8.678,0l-91.119-52.936 v32.108l95.458,55.539l91.119-49.464C252.397,406.864,253.264,406.864,255,406.864z M454.593,406.864L454.593,406.864 L454.593,406.864z"/> <path d="M463.271,337.441H46.729c-5.207,0-8.678-3.471-8.678-8.678v-34.712c0-5.207,3.471-8.678,8.678-8.678h416.542 c5.207,0,8.678,3.471,8.678,8.678v34.712C471.949,333.969,468.478,337.441,463.271,337.441z M55.407,320.085h399.186v-17.356 H55.407V320.085z"/> <path d="M454.593,511H55.407c-5.207,0-8.678-3.471-8.678-8.678V328.763c0-5.207,3.471-8.678,8.678-8.678h399.186 c5.207,0,8.678,3.471,8.678,8.678v173.559C463.271,507.529,459.8,511,454.593,511z M64.085,493.644h381.831V337.441H64.085V493.644 z"/> <path d="M480.627,511H29.373c-5.207,0-8.678-3.471-8.678-8.678c0-5.207,3.471-8.678,8.678-8.678h451.254 c5.207,0,8.678,3.471,8.678,8.678C489.305,507.529,485.834,511,480.627,511z"/> <path d="M402.525,215.949c-2.603,0-6.075-1.736-7.81-4.339c-6.942-13.017-23.431-23.431-23.431-23.431 c-4.339-2.603-5.207-7.81-2.603-12.149c2.603-4.339,7.81-5.207,12.149-2.603c0.868,0.868,19.959,13.017,29.505,29.505 c2.603,4.339,0.868,9.546-3.471,12.149C405.997,215.949,404.261,215.949,402.525,215.949z"/> <path d="M370.417,189.915c-18.224,0-52.068-4.339-54.671-52.068c0-5.207,3.471-8.678,8.678-8.678 c22.563-0.868,38.183,3.471,47.729,13.885c10.414,11.281,12.149,26.034,13.017,38.183c0,2.603-0.868,4.339-2.603,6.075 c-0.868,1.736-3.471,2.603-6.075,2.603C374.756,189.915,373.02,189.915,370.417,189.915z M333.969,146.525 c3.471,19.092,15.62,25.166,32.976,26.034c-0.868-7.81-3.471-13.885-6.942-17.356C354.797,149.997,346.119,147.393,333.969,146.525 z"/> <path d="M150.864,207.271c-1.736,0-2.603,0-4.339-0.868c-10.414-5.207-16.488-8.678-17.356-8.678 c-4.339-1.736-6.075-6.942-4.339-11.281c1.736-4.339,6.942-6.075,11.281-4.339c0,0,6.942,3.471,17.356,8.678 c4.339,2.603,6.075,7.81,3.471,12.149C156.939,205.536,154.336,207.271,150.864,207.271z"/> <path d="M150.864,233.305c-4.339,0-8.678-3.471-8.678-7.81c-2.603-32.108,3.471-59.01,7.81-78.102l0.868-1.736 c0.868-4.339,6.075-7.81,10.414-6.942c4.339,0.868,7.81,6.075,6.942,10.414l-0.868,1.736c-4.339,18.224-9.546,43.39-7.81,73.763 C160.41,228.966,156.071,233.305,150.864,233.305C151.732,233.305,150.864,233.305,150.864,233.305z"/> <path d="M150.864,85.78c0-4.339,3.471-8.678,8.678-8.678c4.339,0,8.678,3.471,8.678,8.678c0,5.207-3.471,8.678-8.678,8.678 S150.864,90.119,150.864,85.78"/> <path d="M159.542,155.203c-11.281,0-19.959-6.075-23.431-15.62c-7.81,1.736-16.488-0.868-22.563-6.942 c-6.942-6.942-8.678-14.753-6.942-22.563c-10.414-4.339-16.488-13.017-16.488-24.298s6.075-19.959,15.62-23.431 c-1.736-7.81,0.868-16.488,6.942-23.431c6.942-6.942,14.753-8.678,22.563-6.942c4.339-8.678,13.885-15.62,24.298-15.62 s19.959,6.942,23.431,15.62c0.868,0,1.736-0.868,3.471-0.868c6.942-0.868,14.753,1.736,19.959,7.81 c6.942,6.942,8.678,14.753,6.942,23.431c8.678,3.471,15.62,13.017,15.62,23.431s-6.942,19.959-15.62,23.431 c1.736,7.81,0,16.488-6.942,22.563c-5.207,5.207-12.149,7.81-19.959,7.81c-0.868,0-2.603,0-3.471-0.868 C179.502,149.129,169.956,155.203,159.542,155.203z M143.054,117.02c1.736,0,2.603,0,4.339,0.868 c3.471,1.736,5.207,6.075,4.339,10.414c0,0.868,0,1.736,0,2.603c0,4.339,3.471,7.81,7.81,7.81s7.81-3.471,7.81-7.81 c0-0.868,0-1.736,0-2.603c-0.868-3.471,0.868-7.81,4.339-10.414c3.471-1.736,7.81-0.868,10.414,1.736 c1.736,1.736,4.339,3.471,6.075,3.471s4.339-0.868,6.075-2.603c1.736-1.736,5.207-5.207-0.868-12.149 c-2.603-2.603-3.471-6.942-1.736-10.414c1.736-3.471,6.075-5.207,10.414-4.339c0.868,0,1.736,0,2.603,0 c3.471,0,6.942-3.471,6.942-7.81s-3.471-7.81-7.81-7.81c-0.868,0-1.736,0-2.603,0c-3.471,0.868-7.81-0.868-10.414-4.339 c-2.603-3.471-0.868-7.81,1.736-10.414c4.339-3.471,5.207-7.81,1.736-12.149c-2.603-2.603-4.339-2.603-6.075-2.603 s-4.339,1.736-6.942,3.471c-2.603,2.603-6.942,3.471-10.414,1.736c-3.471-1.736-5.207-6.075-4.339-10.414c0-0.868,0-1.736,0-2.603 c0.868-3.471-2.603-6.942-6.942-6.942s-7.81,3.471-7.81,7.81c0,0.868,0,1.736,0,2.603c0.868,3.471-0.868,7.81-4.339,10.414 c-3.471,1.736-7.81,0.868-10.414-1.736c-6.075-6.942-10.414-2.603-12.149-1.736c-5.207,5.207-2.603,9.546,0.868,12.149 c2.603,2.603,3.471,6.942,1.736,10.414c-1.736,3.471-6.075,5.207-10.414,4.339c-0.868,0-1.736,0-2.603,0 c-3.471,0-6.942,3.471-6.942,7.81s3.471,7.81,7.81,7.81c0.868,0,1.736,0,2.603,0c3.471-0.868,7.81,0.868,10.414,4.339 s0.868,7.81-1.736,10.414s-5.207,7.81-0.868,12.149c1.736,1.736,3.471,2.603,6.075,2.603c1.736,0,4.339-1.736,6.075-3.471 C138.715,117.888,141.319,117.02,143.054,117.02z"/> <path d="M123.095,199.461c-18.224,0-41.654-10.414-50.332-42.522c-0.868-4.339,1.736-9.546,6.075-10.414 c18.224-5.207,32.976-2.603,45.125,7.81c7.81,6.942,13.885,18.224,18.224,32.976c0.868,2.603,0,4.339-0.868,6.942 c-0.868,2.603-2.603,3.471-5.207,4.339C131.773,199.461,128.302,199.461,123.095,199.461z M92.722,162.146 c6.942,15.62,19.092,20.827,28.637,20.827c-2.603-6.942-6.075-11.281-9.546-14.753C107.475,163.014,100.532,161.278,92.722,162.146 z"/> <path d="M402.525,189.915c-3.471,0-6.075-1.736-7.81-4.339c-2.603-4.339-0.868-9.546,3.471-12.149 c11.281-6.075,18.224-8.678,18.224-8.678c4.339-1.736,9.546,0,11.281,4.339c1.736,4.339,0,9.546-4.339,11.281 c0,0-6.942,3.471-17.356,8.678C405.129,189.915,404.261,189.915,402.525,189.915z"/> <path d="M402.525,224.627L402.525,224.627c-5.207,0-8.678-4.339-8.678-9.546c2.603-32.976-5.207-70.292-7.81-84.176 c-0.868-4.339,1.736-9.546,6.942-10.414c4.339-0.868,9.546,1.736,10.414,6.942c4.339,19.092,10.414,55.539,8.678,89.383 C411.203,221.156,406.864,224.627,402.525,224.627z"/> <path d="M402.525,68.424c0-4.339-3.471-8.678-8.678-8.678c-5.207,0-8.678,3.471-8.678,8.678s3.471,8.678,8.678,8.678 C399.054,77.102,402.525,72.763,402.525,68.424"/> <path d="M393.847,137.847c-11.281,0-19.959-6.075-23.431-15.62c-7.81,1.736-16.488,0-23.431-6.942 c-6.942-6.942-8.678-14.753-6.942-22.563c-8.678-4.339-15.62-13.885-15.62-24.298s6.942-19.959,15.62-23.431 c0-0.868-0.868-1.736-0.868-2.603c-0.868-6.942,1.736-14.753,7.81-19.959c6.942-6.942,14.753-8.678,23.431-6.942 C374.756,5.942,383.434-1,393.847-1c10.414,0,19.959,6.942,23.431,15.62c0.868,0,1.736,0,2.603-0.868 c5.207-0.868,13.017,0,19.959,7.81c6.075,6.075,8.678,13.017,7.81,19.959c0,0.868,0,1.736-0.868,3.471 c10.414,3.471,16.488,13.017,16.488,23.431c0,11.281-6.075,19.959-15.62,23.431c1.736,7.81-0.868,16.488-6.942,22.563 c-6.075,6.075-14.753,8.678-22.563,6.942C413.807,131.773,405.129,137.847,393.847,137.847z M378.227,99.664 c1.736,0,2.603,0,4.339,0.868c3.471,1.736,5.207,6.075,4.339,10.414c0,0.868,0,1.736,0,2.603c0,4.339,3.471,7.81,7.81,7.81 s7.81-3.471,7.81-7.81c0-0.868,0-1.736,0-2.603c-0.868-3.471,0.868-7.81,4.339-10.414c3.471-1.736,7.81-0.868,10.414,1.736 c1.736,1.736,4.339,3.471,6.075,3.471s4.339-0.868,6.075-2.603c4.339-4.339,1.736-9.546-0.868-12.149 c-2.603-2.603-3.471-6.942-1.736-10.414s6.075-5.207,10.414-4.339c0.868,0,1.736,0,2.603,0c2.603,0,6.075-3.471,6.075-7.81 s-3.471-7.81-7.81-7.81c-0.868,0-1.736,0-2.603,0c-3.471,0.868-7.81-0.868-10.414-4.339c-1.736-3.471-0.868-7.81,1.736-10.414 c1.736-1.736,3.471-4.339,3.471-6.075c0-0.868,0-3.471-2.603-6.075c-2.603-2.603-4.339-2.603-5.207-2.603 c-1.736,0-4.339,1.736-6.075,3.471c-2.603,2.603-6.942,3.471-10.414,1.736c-3.471-1.736-5.207-6.075-4.339-10.414 c0-0.868,0-1.736,0-2.603c0.868-3.471-3.471-6.942-7.81-6.942c-4.339,0-7.81,3.471-7.81,7.81c0,0.868,0,1.736,0,2.603 c0.868,3.471-0.868,7.81-4.339,10.414c-3.471,1.736-7.81,0.868-10.414-1.736c-3.471-3.471-7.81-6.075-12.149-0.868 c-2.603,2.603-2.603,4.339-2.603,6.075c0,1.736,1.736,4.339,3.471,6.942c2.603,2.603,3.471,6.942,1.736,10.414 c-1.736,3.471-6.075,5.207-10.414,4.339c-0.868,0-1.736,0-2.603,0c-3.471-1.736-6.942,1.736-6.942,6.075s3.471,7.81,7.81,7.81 c0.868,0,1.736,0,2.603,0c3.471-0.868,7.81,0.868,10.414,4.339c1.736,3.471,0.868,7.81-1.736,10.414 c-6.942,6.942-2.603,10.414-0.868,12.149c5.207,5.207,11.281,0.868,12.149-0.868C373.888,100.532,375.624,99.664,378.227,99.664z"/> <path d="M430.295,182.105c-4.339,0-8.678-0.868-12.149-1.736c-2.603-0.868-4.339-1.736-5.207-4.339 c-1.736-0.868-1.736-3.471-0.868-6.075c4.339-14.753,10.414-25.166,18.224-32.976c11.281-10.414,26.902-13.017,45.125-7.81 c2.603,0.868,4.339,1.736,5.207,4.339c0.868,1.736,1.736,4.339,0.868,6.942C471.949,172.559,448.519,182.105,430.295,182.105z M458.064,144.79c-6.942,0-12.149,1.736-16.488,6.075c-3.471,3.471-6.942,8.678-9.546,14.753c9.546,0,21.695-5.207,28.637-20.827 C459.8,144.79,458.932,144.79,458.064,144.79z"/> <path d="M298.39,302.729H83.176c-19.092,0-35.58-14.753-36.447-32.976c-0.868-9.546,2.603-19.092,9.546-26.034 c4.339-5.207,10.414-8.678,17.356-9.546c3.471-15.62,17.356-26.902,33.844-26.902c10.414,0,20.827,5.207,26.902,13.017 c5.207-2.603,10.414-4.339,16.488-4.339c16.488,0,30.373,11.281,33.844,26.902c10.414,1.736,19.092,7.81,23.431,14.753l0,0 c0,0,0.868,1.736,2.603,1.736c0.868,0,1.736-0.868,2.603-1.736c4.339-14.753,18.224-24.298,32.976-24.298 c16.488,0,30.373,11.281,33.844,26.902c15.62,3.471,26.902,17.356,26.902,33.844C307.068,299.258,303.597,302.729,298.39,302.729z M107.475,224.627c-9.546,0-17.356,7.81-17.356,17.356c0,5.207-3.471,8.678-8.678,8.678c-5.207,0-9.546,1.736-13.017,5.207 c-2.603,3.471-4.339,8.678-4.339,13.017c0.868,8.678,8.678,16.488,19.092,16.488h204.8c-2.603-5.207-8.678-8.678-14.753-8.678 c-5.207,0-8.678-3.471-8.678-8.678c0-9.546-7.81-17.356-17.356-17.356c-7.81,0-14.753,5.207-16.488,12.149 c-2.603,7.81-10.414,13.885-19.092,13.885c-6.942,0-13.017-3.471-17.356-9.546l0,0c-2.603-4.339-9.546-7.81-17.356-7.81 c-5.207,0-8.678-3.471-8.678-8.678c0-9.546-7.81-17.356-17.356-17.356c-5.207,0-9.546,1.736-13.017,5.207 c-1.736,2.603-5.207,3.471-7.81,2.603c-2.603-0.868-5.207-2.603-6.075-5.207C121.359,228.966,114.417,224.627,107.475,224.627z"/> <path d="M428.559,302.729H298.39c-5.207,0-8.678-3.471-8.678-8.678c0-9.546-7.81-17.356-17.356-17.356 c-5.207,0-8.678-3.471-8.678-8.678c0-9.546-7.81-17.356-17.356-17.356c-7.81,0-14.753,5.207-16.488,12.149 c0,0.868-0.868,1.736-0.868,2.603c-0.868,2.603-3.471,4.339-6.075,4.339c-2.603,0.868-5.207,0-7.81-1.736 c-7.81-6.075-12.149-14.753-12.149-24.298c-0.868-9.546,2.603-19.092,9.546-26.034c4.339-5.207,10.414-8.678,17.356-9.546 c3.471-15.62,17.356-26.902,33.844-26.902c10.414,0,20.827,5.207,26.902,13.017c5.207-2.603,10.414-4.339,16.488-4.339 c16.488,0,30.373,11.281,33.844,26.902c10.414,1.736,19.092,7.81,23.431,14.753c0,0.868,0.868,1.736,2.603,1.736 c0.868,0,1.736-0.868,2.603-1.736c4.339-14.753,18.224-24.298,32.976-24.298c16.488,0,30.373,11.281,33.844,26.902 c15.62,3.471,26.902,17.356,26.902,33.844C463.271,287.108,447.651,302.729,428.559,302.729z M306.2,285.373h122.359 c9.546,0,17.356-7.81,17.356-17.356c0-9.546-7.81-17.356-17.356-17.356c-5.207,0-8.678-3.471-8.678-8.678 c0-9.546-7.81-17.356-17.356-17.356c-7.81,0-14.753,5.207-16.488,12.149c-2.603,7.81-10.414,13.885-19.092,13.885 c-6.942,0-13.017-3.471-17.356-9.546c-1.736-4.339-8.678-7.81-16.488-7.81c-5.207,0-8.678-3.471-8.678-8.678 c0-9.546-7.81-17.356-17.356-17.356c-5.207,0-9.546,1.736-13.017,5.207c-1.736,2.603-5.207,3.471-7.81,2.603 c-2.603-0.868-5.207-2.603-6.075-5.207c-2.603-6.942-8.678-11.281-16.488-11.281c-9.546,0-17.356,7.81-17.356,17.356 c0,5.207-3.471,8.678-8.678,8.678c-5.207,0-9.546,1.736-13.017,5.207c-2.603,3.471-4.339,8.678-4.339,13.017 c0,0.868,0,0.868,0,1.736c6.075-6.942,15.62-11.281,26.034-11.281c16.488,0,30.373,11.281,33.844,26.902 C292.315,262.81,302.729,273.224,306.2,285.373z M213.346,258.471L213.346,258.471L213.346,258.471L213.346,258.471z M437.237,241.983L437.237,241.983L437.237,241.983z"/> </g> </g>
</svg>